<svg width="24" height="24" viewBox="0 0 24 24" fill="none" xmlns="http://www.w3.org/2000/svg">
    <path fill-rule="evenodd" clip-rule="evenodd" d="M4.60132 18.1974C4.26945 18.5293 4.26945 19.0673 4.60132 19.3992C4.93318 19.731 5.47124 19.731 5.8031 19.3992L12.0005 13.2017L18.198 19.3992C18.5299 19.7311 19.0679 19.7311 19.3998 19.3992C19.7317 19.0673 19.7317 18.5293 19.3998 18.1974L13.2023 11.9999L19.3997 5.80262C19.7315 5.47075 19.7315 4.93269 19.3997 4.60083C19.0678 4.26896 18.5297 4.26896 18.1979 4.60083L12.0005 10.7982L5.80323 4.60084C5.47137 4.26898 4.93331 4.26898 4.60144 4.60084C4.26958 4.93271 4.26958 5.47077 4.60144 5.80263L10.7988 11.9999L4.60132 18.1974Z"/>
</svg>
