<?xml version="1.0" encoding="utf-8"?>
<!-- Generator: Adobe Illustrator 25.2.3, SVG Export Plug-In . SVG Version: 6.00 Build 0)  -->
<svg version="1.1" id="Layer_1" xmlns="http://www.w3.org/2000/svg" xmlns:xlink="http://www.w3.org/1999/xlink" x="0px" y="0px"
	 viewBox="0 0 20.4 20.6" style="enable-background:new 0 0 20.4 20.6;" xml:space="preserve">
<style type="text/css">
	.st0{fill-rule:evenodd;clip-rule:evenodd;}
</style>
<path class="st0" d="M0.3,0.9c0.1-0.4,0.5-0.7,0.9-0.7h2c0.5,0,0.9,0.3,1,0.8l0.2,1.2h14.8c0.3,0,0.7,0.2,0.9,0.5
	c0.2,0.3,0.2,0.7,0,1l-4,8c-0.2,0.3-0.5,0.6-0.9,0.6H5.6l-2,2h11.6c0.8,0,1.6,0.3,2.1,0.9c0.6,0.6,0.9,1.3,0.9,2.1s-0.3,1.6-0.9,2.1
	c-0.6,0.6-1.3,0.9-2.1,0.9c-0.8,0-1.6-0.3-2.1-0.9c-0.6-0.6-0.9-1.3-0.9-2.1c0-0.3,0.1-0.7,0.2-1H8c0.1,0.3,0.2,0.7,0.2,1
	c0,0.8-0.3,1.6-0.9,2.1c-0.6,0.6-1.3,0.9-2.1,0.9s-1.6-0.3-2.1-0.9c-0.6-0.6-0.9-1.3-0.9-2.1c0-0.5,0.1-0.9,0.3-1.3
	c-1-0.7-1.3-2.1-0.3-3.1l1.9-1.9L2.7,3.8L0.6,2C0.2,1.8,0.1,1.3,0.3,0.9z M4.8,4.3l1.2,6h8.6l3-6H4.8z M5.2,16.3
	c-0.3,0-0.5,0.1-0.7,0.3c-0.2,0.2-0.3,0.4-0.3,0.7s0.1,0.5,0.3,0.7c0.2,0.2,0.4,0.3,0.7,0.3s0.5-0.1,0.7-0.3
	c0.2-0.2,0.3-0.4,0.3-0.7s-0.1-0.5-0.3-0.7C5.7,16.4,5.5,16.3,5.2,16.3z M15.2,16.3c-0.3,0-0.5,0.1-0.7,0.3
	c-0.2,0.2-0.3,0.4-0.3,0.7s0.1,0.5,0.3,0.7c0.2,0.2,0.4,0.3,0.7,0.3s0.5-0.1,0.7-0.3s0.3-0.4,0.3-0.7s-0.1-0.5-0.3-0.7
	S15.5,16.3,15.2,16.3z"/>
</svg>
